<mxfile host="app.diagrams.net" modified="2023-08-25T16:07:48.610Z" agent="Mozilla/5.0 (Macintosh; Intel Mac OS X 10_15_7) AppleWebKit/537.36 (KHTML, like Gecko) Chrome/113.0.0.0 Safari/537.36" version="21.1.8" etag="3ZfdItUpRlnyEPlLEpUU" type="github">
  <diagram name="第 1 页" id="OB7axVTYHnzdXGSU8Zxg">
    <mxGraphModel>
      <root>
        <mxCell id="0" />
        <mxCell id="1" parent="0" />
      </root>
    </mxGraphModel>
  </diagram>
</mxfile>
